<svg xmlns="http://www.w3.org/2000/svg" width="24" height="24" viewBox="0 0 100 100">
  <g>
    <path d="m84.42478,20.01081l10.10281,0l0,74.55223l-74.55082,0l0,-10.17944l10.14538,0l0,0.03689l54.26005,0l0,-0.03689l0.04257,0l0,-64.37279zm-18.92858,10.14255l-35.37403,0l0,35.29883l-10.10281,0l0,-45.44137l45.47685,0l0,10.14255l0,-0.00001z" fill="currentColor"/>
    <g transform="matrix(0.676126 0 0 0.676126 -406.678 -7.59132)">
      <path d="m719.83653,129.53201l-110.26,0l0,-110.263l110.26,0l0,110.263zm-15,-95.263l-80.26,0l0,80.263l80.26,0l0,-80.263z" fill="currentColor"/>
    </g>
  </g>
</svg>
